<svg xmlns="http://www.w3.org/2000/svg" xmlns:xlink="http://www.w3.org/1999/xlink" width="1920" zoomAndPan="magnify" viewBox="0 0 1440 809.999993" height="1080" preserveAspectRatio="xMidYMid meet" version="1.0"><defs><clipPath id="fdf7e32fb4"><path d="M 604.5 320.25 L 835.5 320.25 L 835.5 489.75 L 604.5 489.75 Z M 604.5 320.25 " clip-rule="nonzero"/></clipPath></defs><g clip-path="url(#fdf7e32fb4)"><path fill="#000000" d="M 666.699219 409.800781 L 670.238281 409.800781 C 679.949219 409.800781 688.542969 413.804688 696.023438 421.800781 C 703.503906 429.800781 707.242188 438.9375 707.242188 449.21875 C 707.242188 460.65625 702.925781 470.257812 694.304688 478.023438 C 685.671875 485.792969 674.949219 489.675781 662.148438 489.675781 C 645.679688 489.675781 631.957031 483.292969 620.980469 470.523438 C 609.992188 457.753906 604.511719 441.789062 604.511719 422.628906 C 604.511719 398.457031 612.65625 377.277344 628.949219 359.09375 C 645.238281 340.910156 667.726562 327.992188 696.402344 320.335938 L 696.402344 335.023438 C 675.550781 349.585938 665.136719 368.710938 665.136719 392.382812 L 666.707031 409.796875 Z M 824.652344 320.335938 L 824.652344 334.332031 C 815.269531 339.804688 807.710938 347.941406 801.976562 358.757812 C 796.246094 369.570312 793.378906 381 793.378906 393.066406 C 793.378906 398.984375 793.898438 404.570312 794.953125 409.800781 C 807.28125 410.488281 817.121094 414.433594 824.46875 421.632812 C 831.816406 428.835938 835.496094 438.027344 835.496094 449.21875 C 835.496094 460.414062 830.988281 470.257812 821.972656 478.023438 C 812.957031 485.792969 801.652344 489.675781 788.0625 489.675781 C 771.074219 489.675781 757.292969 483.632812 746.714844 471.542969 C 736.125 459.460938 730.84375 443.835938 730.84375 424.675781 C 730.84375 409.402344 734.550781 394.554688 741.976562 380.136719 C 749.394531 365.71875 759.367188 354.023438 771.878906 345.070312 C 784.386719 336.113281 801.972656 327.867188 824.648438 320.335938 Z M 824.652344 320.335938 " fill-opacity="1" fill-rule="nonzero"/></g></svg>