<svg xmlns="http://www.w3.org/2000/svg" xmlns:xlink="http://www.w3.org/1999/xlink" width="800" zoomAndPan="magnify" viewBox="0 0 600 899.99999" height="1200" preserveAspectRatio="xMidYMid meet" version="1.0"><defs><clipPath id="ecd2f133c5"><path d="M 151 185 L 435.914062 185 L 435.914062 597 L 151 597 Z M 151 185 " clip-rule="nonzero"/></clipPath></defs><g clip-path="url(#ecd2f133c5)"><path fill="#000000" d="M 284.414062 221.460938 C 284.359375 212.679688 284.414062 203.957031 284.46875 195.175781 C 284.4375 194.585938 284.464844 193.996094 284.554688 193.414062 C 284.640625 192.828125 284.789062 192.257812 284.992188 191.703125 C 285.199219 191.148438 285.457031 190.617188 285.769531 190.113281 C 286.082031 189.613281 286.441406 189.144531 286.847656 188.714844 C 287.253906 188.285156 287.699219 187.902344 288.1875 187.5625 C 288.671875 187.222656 289.183594 186.9375 289.726562 186.703125 C 290.273438 186.464844 290.832031 186.289062 291.414062 186.167969 C 291.992188 186.046875 292.578125 185.984375 293.171875 185.984375 C 293.761719 185.984375 294.347656 186.039062 294.929688 186.15625 C 295.507812 186.273438 296.070312 186.449219 296.617188 186.679688 C 297.160156 186.910156 297.679688 187.195312 298.164062 187.53125 C 298.652344 187.867188 299.101562 188.25 299.511719 188.675781 C 299.917969 189.105469 300.28125 189.570312 300.597656 190.070312 C 300.914062 190.570312 301.175781 191.097656 301.382812 191.652344 C 301.589844 192.207031 301.738281 192.777344 301.832031 193.359375 C 301.925781 193.945312 301.957031 194.53125 301.929688 195.125 C 301.988281 198.191406 301.929688 201.257812 301.929688 204.324219 L 301.929688 206.335938 L 301.988281 212.3125 C 301.988281 215.378906 301.988281 218.445312 301.929688 221.511719 C 301.960938 222.820312 301.738281 224.085938 301.265625 225.304688 C 300.789062 226.527344 300.09375 227.605469 299.183594 228.546875 C 298.375 229.304688 297.453125 229.882812 296.417969 230.273438 C 295.382812 230.667969 294.3125 230.851562 293.203125 230.820312 L 292.988281 230.820312 C 292.386719 230.824219 291.796875 230.765625 291.210938 230.644531 C 290.625 230.523438 290.058594 230.34375 289.511719 230.105469 C 288.960938 229.867188 288.445312 229.570312 287.957031 229.222656 C 287.472656 228.875 287.027344 228.480469 286.621094 228.042969 C 286.21875 227.601562 285.863281 227.121094 285.5625 226.605469 C 285.257812 226.09375 285.011719 225.550781 284.820312 224.984375 C 284.628906 224.417969 284.5 223.835938 284.433594 223.242188 C 284.363281 222.648438 284.359375 222.054688 284.414062 221.460938 Z M 183.820312 402.644531 L 182.863281 402.765625 C 182 402.820312 181.1875 403.046875 180.425781 403.453125 L 176.09375 405.9375 C 168.949219 410.011719 161.804688 414.082031 154.769531 418.3125 C 154.335938 418.609375 153.9375 418.945312 153.566406 419.316406 C 153.199219 419.6875 152.871094 420.09375 152.578125 420.527344 C 152.285156 420.960938 152.039062 421.421875 151.835938 421.902344 C 151.628906 422.382812 151.472656 422.882812 151.363281 423.394531 C 151.253906 423.90625 151.191406 424.421875 151.179688 424.945312 C 151.171875 425.46875 151.207031 425.988281 151.296875 426.503906 C 151.382812 427.019531 151.519531 427.523438 151.703125 428.015625 C 151.886719 428.503906 152.113281 428.972656 152.386719 429.421875 C 152.742188 430.105469 153.183594 430.730469 153.710938 431.292969 C 154.234375 431.859375 154.824219 432.34375 155.484375 432.75 C 156.140625 433.152344 156.839844 433.464844 157.578125 433.679688 C 158.320312 433.894531 159.078125 434.011719 159.847656 434.019531 C 161.144531 434.039062 162.359375 433.738281 163.5 433.121094 C 171.597656 428.679688 179.902344 423.921875 188.953125 418.472656 C 189.34375 418.226562 189.714844 417.949219 190.058594 417.636719 C 190.402344 417.324219 190.714844 416.984375 191 416.621094 C 191.285156 416.253906 191.535156 415.863281 191.753906 415.453125 C 191.96875 415.042969 192.148438 414.617188 192.289062 414.175781 C 192.433594 413.734375 192.535156 413.285156 192.597656 412.824219 C 192.660156 412.367188 192.679688 411.902344 192.664062 411.441406 C 192.644531 410.976562 192.585938 410.519531 192.488281 410.066406 C 192.386719 409.613281 192.25 409.171875 192.074219 408.742188 C 191.816406 407.851562 191.421875 407.027344 190.890625 406.265625 C 190.359375 405.507812 189.722656 404.851562 188.976562 404.300781 C 188.230469 403.75 187.417969 403.332031 186.535156 403.050781 C 185.652344 402.765625 184.746094 402.632812 183.820312 402.644531 Z M 151.910156 274.34375 C 152.492188 276.078125 153.535156 277.472656 155.03125 278.523438 C 162.917969 283.386719 171.121094 288.148438 180.167969 293.066406 C 181.34375 293.75 182.613281 294.085938 183.972656 294.070312 C 184.75 294.074219 185.507812 293.96875 186.253906 293.753906 C 187.398438 293.394531 188.425781 292.832031 189.34375 292.0625 C 190.261719 291.292969 190.996094 290.375 191.546875 289.3125 C 191.808594 288.84375 192.027344 288.351562 192.199219 287.84375 C 192.371094 287.332031 192.492188 286.8125 192.5625 286.277344 C 192.636719 285.742188 192.65625 285.207031 192.625 284.671875 C 192.59375 284.132812 192.511719 283.605469 192.382812 283.082031 C 192.25 282.558594 192.070312 282.054688 191.84375 281.566406 C 191.613281 281.078125 191.339844 280.617188 191.023438 280.183594 C 190.707031 279.746094 190.355469 279.34375 189.960938 278.976562 C 189.566406 278.609375 189.144531 278.28125 188.6875 277.996094 C 181.28125 273.605469 172.597656 268.476562 163.816406 263.714844 C 163.214844 263.375 162.578125 263.121094 161.910156 262.945312 C 161.238281 262.773438 160.558594 262.691406 159.867188 262.695312 C 159.175781 262.699219 158.496094 262.792969 157.828125 262.972656 C 157.164062 263.15625 156.53125 263.421875 155.933594 263.769531 C 155.203125 264.21875 154.542969 264.753906 153.953125 265.375 C 153.363281 265.996094 152.863281 266.679688 152.449219 267.433594 C 152.035156 268.183594 151.726562 268.972656 151.519531 269.804688 C 151.308594 270.636719 151.210938 271.480469 151.222656 272.335938 L 151.222656 273.074219 L 151.597656 273.761719 C 151.726562 273.945312 151.828125 274.140625 151.910156 274.34375 Z M 435.703125 271.648438 C 435.636719 270.832031 435.46875 270.035156 435.199219 269.257812 C 434.929688 268.484375 434.570312 267.753906 434.117188 267.070312 C 433.664062 266.386719 433.132812 265.769531 432.523438 265.21875 C 431.914062 264.667969 431.246094 264.203125 430.515625 263.820312 C 429.808594 263.472656 429.066406 263.21875 428.292969 263.058594 C 427.515625 262.894531 426.734375 262.832031 425.945312 262.863281 C 425.15625 262.894531 424.382812 263.023438 423.625 263.25 C 422.867188 263.472656 422.148438 263.789062 421.46875 264.191406 C 413.742188 268.527344 406.015625 273.023438 398.34375 277.570312 C 397.835938 277.847656 397.363281 278.175781 396.917969 278.546875 C 396.476562 278.917969 396.074219 279.328125 395.714844 279.78125 C 395.351562 280.234375 395.039062 280.714844 394.773438 281.226562 C 394.507812 281.742188 394.292969 282.277344 394.136719 282.832031 C 393.976562 283.386719 393.871094 283.953125 393.824219 284.527344 C 393.777344 285.105469 393.785156 285.679688 393.851562 286.253906 C 393.917969 286.828125 394.039062 287.390625 394.214844 287.941406 C 394.394531 288.492188 394.621094 289.019531 394.902344 289.523438 C 395.269531 290.199219 395.71875 290.816406 396.253906 291.375 C 396.785156 291.929688 397.382812 292.40625 398.042969 292.800781 C 398.703125 293.199219 399.40625 293.5 400.148438 293.707031 C 400.890625 293.910156 401.648438 294.015625 402.417969 294.019531 C 404.050781 294.003906 405.566406 293.578125 406.96875 292.75 C 414.640625 288.464844 422.792969 283.8125 430.675781 279 C 432.160156 277.949219 433.339844 276.625 434.214844 275.03125 C 434.535156 274.503906 434.855469 274.027344 435.171875 273.550781 L 435.855469 272.707031 Z M 430.675781 417.574219 C 423.003906 413.132812 415.3125 408.707031 407.605469 404.300781 C 406.472656 403.585938 405.242188 403.121094 403.917969 402.910156 C 402.59375 402.699219 401.285156 402.757812 399.984375 403.082031 C 398.894531 403.386719 397.90625 403.890625 397.023438 404.597656 C 396.140625 405.304688 395.433594 406.15625 394.902344 407.15625 C 394.621094 407.691406 394.390625 408.246094 394.21875 408.828125 C 394.046875 409.40625 393.933594 410 393.882812 410.601562 C 393.828125 411.203125 393.835938 411.804688 393.90625 412.40625 C 393.972656 413.007812 394.101562 413.597656 394.289062 414.171875 C 394.476562 414.746094 394.722656 415.296875 395.019531 415.824219 C 395.320312 416.351562 395.667969 416.84375 396.066406 417.296875 C 396.464844 417.753906 396.90625 418.164062 397.386719 418.53125 C 397.867188 418.898438 398.378906 419.214844 398.925781 419.476562 C 406.28125 423.761719 413.691406 428.046875 421.152344 432.328125 C 422.136719 432.847656 423.15625 433.269531 424.21875 433.597656 L 425.4375 434.019531 L 426.019531 434.019531 C 426.511719 434.039062 427 434.015625 427.488281 433.949219 C 427.972656 433.882812 428.453125 433.777344 428.921875 433.632812 C 429.390625 433.484375 429.84375 433.300781 430.28125 433.078125 C 430.71875 432.855469 431.136719 432.597656 431.527344 432.304688 C 431.921875 432.007812 432.289062 431.683594 432.628906 431.328125 C 432.96875 430.972656 433.273438 430.59375 433.546875 430.183594 C 433.824219 429.777344 434.0625 429.347656 434.261719 428.902344 C 434.464844 428.453125 434.628906 427.992188 434.75 427.515625 C 434.894531 427.050781 434.996094 426.578125 435.058594 426.097656 C 435.121094 425.613281 435.140625 425.128906 435.117188 424.644531 C 435.097656 424.160156 435.03125 423.679688 434.929688 423.203125 C 434.824219 422.726562 434.679688 422.265625 434.496094 421.816406 C 434.308594 421.367188 434.089844 420.933594 433.832031 420.523438 C 433.570312 420.113281 433.277344 419.726562 432.953125 419.363281 C 432.628906 419.003906 432.273438 418.671875 431.890625 418.371094 C 431.507812 418.070312 431.105469 417.804688 430.675781 417.574219 Z M 340.769531 543.265625 L 340.769531 574.785156 C 340.769531 575.496094 340.734375 576.207031 340.664062 576.914062 C 340.59375 577.625 340.488281 578.324219 340.347656 579.023438 C 340.207031 579.722656 340.035156 580.410156 339.828125 581.089844 C 339.621094 581.773438 339.378906 582.441406 339.105469 583.097656 C 338.832031 583.753906 338.527344 584.398438 338.191406 585.027344 C 337.855469 585.652344 337.492188 586.261719 337.09375 586.855469 C 336.699219 587.445312 336.277344 588.015625 335.824219 588.566406 C 335.371094 589.117188 334.894531 589.644531 334.390625 590.144531 C 333.886719 590.648438 333.359375 591.125 332.808594 591.578125 C 332.261719 592.03125 331.6875 592.453125 331.097656 592.847656 C 330.503906 593.242188 329.894531 593.609375 329.269531 593.945312 C 328.640625 594.28125 327.996094 594.585938 327.339844 594.859375 C 326.683594 595.132812 326.011719 595.371094 325.332031 595.578125 C 324.648438 595.785156 323.960938 595.957031 323.261719 596.097656 C 322.5625 596.238281 321.859375 596.34375 321.152344 596.414062 C 320.445312 596.484375 319.734375 596.519531 319.023438 596.519531 L 268.0625 596.519531 C 267.351562 596.519531 266.640625 596.488281 265.929688 596.417969 C 265.222656 596.347656 264.519531 596.242188 263.820312 596.105469 C 263.121094 595.964844 262.429688 595.792969 261.75 595.585938 C 261.066406 595.378906 260.398438 595.140625 259.738281 594.867188 C 259.082031 594.59375 258.4375 594.289062 257.8125 593.953125 C 257.183594 593.621094 256.570312 593.253906 255.980469 592.859375 C 255.386719 592.460938 254.816406 592.039062 254.265625 591.585938 C 253.714844 591.136719 253.1875 590.660156 252.683594 590.15625 C 252.179688 589.652344 251.703125 589.125 251.25 588.574219 C 250.800781 588.023438 250.375 587.453125 249.980469 586.859375 C 249.582031 586.269531 249.21875 585.660156 248.882812 585.03125 C 248.546875 584.402344 248.242188 583.761719 247.96875 583.105469 C 247.695312 582.445312 247.457031 581.777344 247.25 581.09375 C 247.042969 580.414062 246.871094 579.722656 246.730469 579.027344 C 246.59375 578.328125 246.488281 577.625 246.417969 576.917969 C 246.347656 576.207031 246.3125 575.496094 246.3125 574.785156 L 246.3125 543.265625 C 246.3125 542.554688 246.347656 541.84375 246.417969 541.136719 C 246.488281 540.425781 246.59375 539.722656 246.730469 539.027344 C 246.871094 538.328125 247.042969 537.636719 247.25 536.957031 C 247.457031 536.273438 247.695312 535.605469 247.96875 534.949219 C 248.242188 534.289062 248.546875 533.648438 248.882812 533.019531 C 249.21875 532.390625 249.582031 531.78125 249.980469 531.191406 C 250.375 530.597656 250.800781 530.027344 251.25 529.476562 C 251.703125 528.925781 252.179688 528.398438 252.683594 527.898438 C 253.1875 527.394531 253.714844 526.914062 254.265625 526.464844 C 254.816406 526.011719 255.386719 525.589844 255.980469 525.195312 C 256.574219 524.796875 257.183594 524.433594 257.8125 524.097656 C 258.4375 523.761719 259.082031 523.457031 259.738281 523.183594 C 260.398438 522.914062 261.066406 522.671875 261.75 522.464844 C 262.429688 522.257812 263.121094 522.085938 263.820312 521.949219 C 264.519531 521.808594 265.222656 521.703125 265.929688 521.636719 C 266.640625 521.566406 267.351562 521.53125 268.0625 521.53125 L 319.023438 521.53125 C 319.734375 521.53125 320.445312 521.566406 321.152344 521.636719 C 321.859375 521.707031 322.5625 521.8125 323.261719 521.953125 C 323.960938 522.09375 324.648438 522.265625 325.332031 522.472656 C 326.011719 522.679688 326.683594 522.921875 327.339844 523.191406 C 327.996094 523.464844 328.640625 523.769531 329.269531 524.105469 C 329.894531 524.441406 330.503906 524.808594 331.097656 525.203125 C 331.6875 525.597656 332.261719 526.023438 332.808594 526.472656 C 333.359375 526.925781 333.886719 527.402344 334.390625 527.90625 C 334.894531 528.410156 335.371094 528.9375 335.824219 529.484375 C 336.277344 530.035156 336.699219 530.605469 337.09375 531.199219 C 337.492188 531.789062 337.855469 532.398438 338.191406 533.027344 C 338.527344 533.652344 338.832031 534.296875 339.105469 534.953125 C 339.378906 535.609375 339.621094 536.277344 339.828125 536.960938 C 340.035156 537.640625 340.207031 538.332031 340.347656 539.027344 C 340.488281 539.726562 340.59375 540.429688 340.664062 541.136719 C 340.734375 541.84375 340.769531 542.554688 340.769531 543.265625 Z M 325.953125 543.265625 C 325.957031 542.808594 325.910156 542.359375 325.824219 541.910156 C 325.738281 541.460938 325.605469 541.027344 325.433594 540.605469 C 325.261719 540.183594 325.046875 539.78125 324.796875 539.402344 C 324.542969 539.019531 324.257812 538.667969 323.933594 538.34375 C 323.613281 538.019531 323.261719 537.730469 322.882812 537.476562 C 322.507812 537.21875 322.105469 537.003906 321.683594 536.828125 C 321.265625 536.652344 320.832031 536.515625 320.382812 536.425781 C 319.9375 536.335938 319.484375 536.289062 319.027344 536.285156 L 268.0625 536.285156 C 267.605469 536.285156 267.148438 536.328125 266.699219 536.417969 C 266.25 536.507812 265.8125 536.640625 265.390625 536.816406 C 264.964844 536.992188 264.5625 537.207031 264.179688 537.460938 C 263.800781 537.714844 263.445312 538.003906 263.121094 538.328125 C 262.796875 538.652344 262.507812 539.003906 262.253906 539.386719 C 262 539.769531 261.785156 540.171875 261.609375 540.59375 C 261.433594 541.015625 261.300781 541.453125 261.210938 541.902344 C 261.121094 542.355469 261.078125 542.808594 261.078125 543.265625 L 261.078125 574.785156 C 261.078125 575.242188 261.121094 575.699219 261.210938 576.148438 C 261.300781 576.597656 261.433594 577.035156 261.609375 577.457031 C 261.785156 577.882812 262 578.285156 262.253906 578.664062 C 262.507812 579.046875 262.796875 579.398438 263.121094 579.722656 C 263.445312 580.046875 263.800781 580.335938 264.179688 580.589844 C 264.5625 580.847656 264.964844 581.0625 265.390625 581.238281 C 265.8125 581.410156 266.25 581.542969 266.699219 581.632812 C 267.148438 581.722656 267.605469 581.765625 268.0625 581.765625 L 319.023438 581.765625 C 319.476562 581.765625 319.929688 581.71875 320.378906 581.625 C 320.824219 581.535156 321.257812 581.402344 321.679688 581.222656 C 322.101562 581.046875 322.5 580.832031 322.878906 580.578125 C 323.257812 580.320312 323.609375 580.03125 323.929688 579.707031 C 324.25 579.382812 324.539062 579.03125 324.789062 578.652344 C 325.042969 578.269531 325.253906 577.867188 325.429688 577.445312 C 325.601562 577.023438 325.730469 576.589844 325.820312 576.140625 C 325.90625 575.695312 325.949219 575.242188 325.949219 574.785156 Z M 394.269531 361.445312 C 393.671875 367.21875 392.578125 372.894531 390.984375 378.476562 C 389.390625 384.054688 387.324219 389.453125 384.785156 394.671875 C 382.242188 399.890625 379.269531 404.847656 375.855469 409.542969 C 372.445312 414.238281 368.652344 418.605469 364.476562 422.636719 C 361.628906 425.546875 359.019531 428.65625 356.644531 431.96875 C 354.273438 435.277344 352.167969 438.75 350.328125 442.382812 C 348.488281 446.015625 346.933594 449.769531 345.667969 453.640625 C 344.40625 457.507812 343.441406 461.453125 342.78125 465.472656 C 340.585938 477.566406 339.085938 489.75 338.285156 502.015625 C 337.488281 510.902344 333.152344 515.660156 324.101562 515.660156 L 262.136719 515.660156 C 261.675781 515.710938 261.214844 515.738281 260.75 515.738281 C 260.289062 515.738281 259.828125 515.710938 259.367188 515.664062 C 258.90625 515.613281 258.453125 515.535156 258 515.433594 C 257.546875 515.332031 257.101562 515.207031 256.664062 515.058594 C 256.226562 514.90625 255.800781 514.734375 255.378906 514.539062 C 254.960938 514.339844 254.554688 514.121094 254.160156 513.878906 C 253.765625 513.636719 253.386719 513.371094 253.023438 513.089844 C 252.65625 512.804688 252.308594 512.5 251.976562 512.175781 C 251.644531 511.855469 251.332031 511.515625 251.039062 511.15625 C 250.742188 510.800781 250.46875 510.429688 250.21875 510.039062 C 249.964844 509.652344 249.734375 509.253906 249.523438 508.839844 C 249.316406 508.425781 249.128906 508.003906 248.96875 507.570312 C 248.808594 507.136719 248.667969 506.695312 248.554688 506.246094 C 248.441406 505.800781 248.355469 505.347656 248.292969 504.886719 C 248.230469 504.429688 248.191406 503.96875 248.179688 503.507812 C 248.167969 503.042969 248.179688 502.582031 248.21875 502.121094 C 248.191406 492.71875 247.308594 483.394531 245.574219 474.148438 C 243.839844 464.90625 241.28125 455.898438 237.902344 447.121094 C 233.960938 437.703125 228.4375 429.332031 221.332031 422 C 192.972656 392.1875 183.972656 357.003906 196.835938 318.082031 C 209.800781 279.105469 238.007812 255.835938 278.699219 249.488281 C 280.613281 249.210938 282.535156 248.988281 284.464844 248.820312 C 286.394531 248.648438 288.324219 248.535156 290.257812 248.476562 C 292.195312 248.421875 294.128906 248.417969 296.0625 248.46875 C 298 248.523438 299.929688 248.628906 301.859375 248.792969 C 303.789062 248.953125 305.710938 249.171875 307.628906 249.445312 C 309.542969 249.714844 311.449219 250.042969 313.347656 250.425781 C 315.246094 250.804688 317.132812 251.242188 319.003906 251.730469 C 320.875 252.21875 322.734375 252.761719 324.574219 253.355469 C 326.417969 253.953125 328.242188 254.597656 330.046875 255.296875 C 331.851562 255.996094 333.632812 256.746094 335.394531 257.546875 C 337.15625 258.351562 338.894531 259.199219 340.609375 260.101562 C 342.320312 261 344.007812 261.949219 345.667969 262.945312 C 347.324219 263.941406 348.953125 264.988281 350.554688 266.078125 C 352.152344 267.164062 353.71875 268.300781 355.253906 269.480469 C 356.789062 270.660156 358.289062 271.882812 359.753906 273.144531 C 361.21875 274.410156 362.644531 275.714844 364.035156 277.0625 C 365.425781 278.410156 366.773438 279.792969 368.085938 281.21875 C 369.394531 282.640625 370.664062 284.101562 371.890625 285.597656 C 373.121094 287.09375 374.300781 288.625 375.441406 290.1875 C 376.582031 291.75 377.675781 293.34375 378.722656 294.972656 C 379.773438 296.597656 380.773438 298.253906 381.726562 299.933594 C 382.683594 301.617188 383.585938 303.328125 384.441406 305.0625 C 385.300781 306.796875 386.105469 308.554688 386.859375 310.335938 C 387.617188 312.117188 388.320312 313.917969 388.972656 315.742188 C 389.625 317.5625 390.226562 319.398438 390.773438 321.253906 C 391.320312 323.109375 391.8125 324.980469 392.253906 326.863281 C 392.695312 328.75 393.082031 330.644531 393.414062 332.546875 C 393.746094 334.453125 394.023438 336.367188 394.246094 338.289062 C 394.46875 340.210938 394.636719 342.136719 394.75 344.070312 C 394.859375 346 394.917969 347.933594 394.921875 349.867188 C 394.921875 351.800781 394.867188 353.734375 394.761719 355.667969 C 394.652344 357.597656 394.488281 359.523438 394.269531 361.445312 Z M 286.261719 265.265625 C 251.078125 268.492188 225.886719 287.265625 213.558594 320.316406 C 201.171875 353.636719 208.371094 383.992188 232.714844 410.117188 C 235.308594 412.921875 238.007812 415.671875 240.386719 418.683594 C 243.546875 423.042969 246.398438 427.59375 248.949219 432.335938 C 251.496094 437.078125 253.71875 441.96875 255.613281 447.007812 C 257.507812 452.042969 259.058594 457.1875 260.265625 462.433594 C 261.472656 467.675781 262.328125 472.980469 262.824219 478.339844 C 263.769531 485.160156 264.199219 492.035156 264.882812 498.804688 L 321.667969 498.964844 C 321.828125 497.113281 321.828125 495.421875 322.085938 493.675781 C 323.574219 482.941406 324.472656 472.097656 326.746094 461.523438 C 327.707031 456.46875 329.046875 451.519531 330.769531 446.675781 C 332.488281 441.828125 334.570312 437.144531 337.011719 432.617188 C 339.453125 428.089844 342.226562 423.777344 345.332031 419.675781 C 348.4375 415.578125 351.839844 411.738281 355.535156 408.160156 C 359.164062 404.542969 362.375 400.585938 365.164062 396.289062 C 367.957031 391.996094 370.265625 387.453125 372.097656 382.667969 C 396.226562 323.847656 349.5 259.484375 286.261719 265.265625 Z M 286.261719 265.265625 " fill-opacity="1" fill-rule="nonzero"/></g></svg>