<svg xmlns="http://www.w3.org/2000/svg" xmlns:xlink="http://www.w3.org/1999/xlink" width="800" zoomAndPan="magnify" viewBox="0 0 600 899.99999" height="1200" preserveAspectRatio="xMidYMid meet" version="1.0"><defs><clipPath id="aba8a87b23"><path d="M 66.191406 207 L 478.691406 207 L 478.691406 567 L 66.191406 567 Z M 66.191406 207 " clip-rule="nonzero"/></clipPath></defs><g clip-path="url(#aba8a87b23)"><path fill="#000000" d="M 476.410156 327.828125 L 397.078125 238.953125 C 396.8125 238.628906 396.523438 238.328125 396.203125 238.054688 C 395.882812 237.785156 395.539062 237.546875 395.175781 237.339844 C 394.808594 237.132812 394.429688 236.960938 394.03125 236.828125 C 393.632812 236.695312 393.226562 236.597656 392.808594 236.542969 C 392.394531 236.484375 391.976562 236.46875 391.558594 236.492188 C 391.136719 236.515625 390.726562 236.578125 390.316406 236.679688 C 389.910156 236.78125 389.515625 236.921875 389.136719 237.097656 C 388.753906 237.273438 388.394531 237.484375 388.054688 237.730469 C 386.570312 238.140625 385.328125 238.929688 384.324219 240.097656 C 382.546875 242.199219 380.535156 244.050781 378.296875 245.652344 C 376.261719 247.085938 374.039062 248.117188 371.632812 248.742188 C 368.195312 249.585938 364.710938 250.101562 361.175781 250.285156 C 357.058594 250.519531 352.9375 250.527344 348.816406 250.316406 C 342.421875 250.039062 335.332031 249.328125 328.476562 248.660156 C 311.777344 246.300781 295.046875 246.03125 278.28125 247.851562 L 266.90625 248.597656 C 256.902344 249.277344 246.5625 249.972656 238.582031 250.324219 C 233.980469 250.527344 230.527344 250.582031 227.730469 250.609375 C 225.148438 250.621094 222.570312 250.476562 220.003906 250.179688 C 218.148438 250.015625 216.359375 249.578125 214.636719 248.871094 C 212.914062 248.160156 211.335938 247.210938 209.902344 246.023438 C 205.476562 241.792969 201.644531 237.078125 198.402344 231.882812 L 183.847656 210.496094 C 183.308594 209.609375 182.597656 208.898438 181.710938 208.363281 C 180.90625 207.996094 180.0625 207.75 179.1875 207.625 C 178.308594 207.5 177.433594 207.5 176.554688 207.625 C 175.675781 207.75 174.835938 207.996094 174.027344 208.363281 C 173.222656 208.730469 172.484375 209.203125 171.8125 209.785156 L 70.675781 280.28125 C 69.90625 280.820312 69.253906 281.46875 68.714844 282.238281 C 67.886719 283.117188 67.304688 284.136719 66.96875 285.296875 C 66.703125 286.28125 66.632812 287.277344 66.765625 288.285156 C 66.898438 289.292969 67.222656 290.238281 67.734375 291.121094 C 80.203125 312.523438 93.703125 335.523438 107.851562 359.480469 C 119.757812 379.621094 133.085938 401.992188 148.535156 427.851562 C 147.820312 428.957031 147.179688 430.105469 146.617188 431.292969 C 146.054688 432.484375 145.570312 433.707031 145.171875 434.960938 C 144.773438 436.21875 144.460938 437.492188 144.234375 438.789062 C 144.007812 440.085938 143.867188 441.394531 143.816406 442.707031 C 143.765625 444.023438 143.804688 445.335938 143.929688 446.648438 C 144.054688 447.957031 144.265625 449.253906 144.566406 450.539062 C 144.863281 451.820312 145.25 453.074219 145.71875 454.304688 C 146.1875 455.535156 146.734375 456.730469 147.363281 457.886719 C 147.992188 459.042969 148.695312 460.152344 149.472656 461.214844 C 150.253906 462.277344 151.097656 463.28125 152.011719 464.230469 C 152.925781 465.179688 153.898438 466.0625 154.929688 466.878906 C 155.960938 467.699219 157.046875 468.441406 158.175781 469.113281 C 159.308594 469.789062 160.480469 470.378906 161.695312 470.894531 C 162.90625 471.410156 164.148438 471.839844 165.417969 472.1875 C 166.6875 472.535156 167.976562 472.796875 169.28125 472.972656 C 170.585938 473.148438 171.898438 473.234375 173.214844 473.230469 C 173.691406 473.222656 174.164062 473.183594 174.636719 473.113281 L 174.683594 473.113281 L 174.683594 473.164062 C 174.613281 473.632812 174.574219 474.101562 174.5625 474.574219 C 174.558594 476.492188 174.738281 478.386719 175.101562 480.265625 C 175.46875 482.144531 176.015625 483.972656 176.738281 485.746094 C 177.464844 487.515625 178.355469 489.203125 179.410156 490.796875 C 180.464844 492.394531 181.667969 493.875 183.015625 495.238281 L 183.152344 495.375 C 184.480469 496.703125 185.921875 497.890625 187.476562 498.941406 C 189.035156 499.988281 190.675781 500.882812 192.402344 501.613281 C 194.128906 502.347656 195.910156 502.910156 197.746094 503.300781 C 199.582031 503.691406 201.4375 503.902344 203.316406 503.9375 L 203.957031 503.980469 C 204.433594 503.96875 204.90625 503.929688 205.375 503.859375 L 205.425781 503.859375 L 205.425781 503.910156 C 205.355469 504.382812 205.3125 504.851562 205.304688 505.328125 C 205.296875 507.242188 205.472656 509.140625 205.839844 511.019531 C 206.207031 512.898438 206.75 514.722656 207.476562 516.496094 C 208.203125 518.269531 209.09375 519.953125 210.152344 521.550781 C 211.207031 523.144531 212.410156 524.625 213.757812 525.984375 L 214.078125 526.304688 C 215.4375 527.644531 216.910156 528.839844 218.503906 529.890625 C 220.097656 530.941406 221.777344 531.828125 223.542969 532.550781 C 225.3125 533.273438 227.132812 533.816406 229.003906 534.179688 C 230.878906 534.546875 232.769531 534.726562 234.675781 534.71875 C 235.152344 534.710938 235.625 534.671875 236.09375 534.601562 L 236.144531 534.601562 L 236.144531 534.652344 C 236.078125 535.125 236.039062 535.59375 236.027344 536.070312 C 236.023438 537.945312 236.195312 539.804688 236.550781 541.648438 C 236.902344 543.488281 237.429688 545.28125 238.128906 547.019531 C 238.828125 548.761719 239.683594 550.421875 240.703125 551.996094 C 241.722656 553.570312 242.882812 555.035156 244.183594 556.386719 L 244.621094 556.871094 C 245.28125 557.527344 245.972656 558.15625 246.695312 558.75 C 247.414062 559.34375 248.164062 559.902344 248.9375 560.425781 C 249.710938 560.945312 250.507812 561.429688 251.328125 561.878906 C 252.148438 562.324219 252.988281 562.730469 253.847656 563.097656 C 254.707031 563.464844 255.582031 563.789062 256.472656 564.074219 C 257.359375 564.355469 258.261719 564.597656 259.175781 564.792969 C 260.089844 564.992188 261.007812 565.144531 261.9375 565.253906 C 262.863281 565.363281 263.792969 565.429688 264.726562 565.449219 C 265.664062 565.472656 266.59375 565.449219 267.527344 565.378906 C 268.457031 565.3125 269.382812 565.199219 270.304688 565.042969 C 271.226562 564.890625 272.136719 564.6875 273.039062 564.445312 C 273.941406 564.203125 274.828125 563.917969 275.703125 563.589844 C 276.578125 563.261719 277.4375 562.894531 278.277344 562.484375 C 279.117188 562.078125 279.933594 561.628906 280.730469 561.140625 C 281.527344 560.65625 282.300781 560.132812 283.046875 559.570312 C 283.792969 559.011719 284.511719 558.414062 285.203125 557.785156 C 285.335938 558.015625 285.496094 558.222656 285.679688 558.414062 C 286.351562 559.082031 287.054688 559.71875 287.789062 560.320312 C 288.523438 560.921875 289.285156 561.484375 290.074219 562.015625 C 290.863281 562.542969 291.671875 563.03125 292.507812 563.480469 C 293.34375 563.929688 294.199219 564.335938 295.074219 564.703125 C 295.949219 565.070312 296.839844 565.394531 297.746094 565.675781 C 298.652344 565.953125 299.570312 566.191406 300.5 566.382812 C 301.429688 566.574219 302.367188 566.722656 303.308594 566.824219 C 304.253906 566.925781 305.199219 566.980469 306.148438 566.988281 C 307.097656 567 308.042969 566.964844 308.988281 566.882812 C 309.933594 566.800781 310.871094 566.671875 311.804688 566.5 C 312.738281 566.328125 313.660156 566.109375 314.574219 565.847656 C 315.484375 565.585938 316.382812 565.28125 317.265625 564.933594 C 318.148438 564.585938 319.011719 564.195312 319.855469 563.765625 C 320.699219 563.332031 321.523438 562.859375 322.320312 562.347656 C 323.121094 561.835938 323.894531 561.289062 324.640625 560.703125 C 325.386719 560.117188 326.101562 559.496094 326.785156 558.839844 L 327.4375 558.222656 C 328.777344 556.863281 329.972656 555.390625 331.023438 553.796875 C 332.074219 552.203125 332.960938 550.523438 333.679688 548.757812 C 334.402344 546.992188 334.945312 545.171875 335.3125 543.300781 C 335.675781 541.425781 335.855469 539.539062 335.851562 537.628906 L 335.820312 536.984375 L 335.789062 536.984375 C 335.789062 536.730469 335.738281 536.472656 335.703125 536.214844 L 335.703125 536.164062 L 335.761719 536.164062 C 336.234375 536.230469 336.710938 536.265625 337.191406 536.277344 C 338.152344 536.277344 339.113281 536.230469 340.074219 536.136719 C 341.03125 536.042969 341.984375 535.902344 342.929688 535.71875 C 343.875 535.53125 344.808594 535.296875 345.730469 535.019531 C 346.652344 534.738281 347.558594 534.417969 348.449219 534.046875 C 349.335938 533.679688 350.207031 533.269531 351.058594 532.816406 C 351.90625 532.363281 352.734375 531.867188 353.535156 531.332031 C 354.335938 530.796875 355.109375 530.226562 355.851562 529.613281 C 356.597656 529.003906 357.308594 528.359375 357.992188 527.675781 C 358.671875 526.996094 359.316406 526.28125 359.929688 525.539062 C 360.539062 524.792969 361.113281 524.019531 361.648438 523.21875 C 362.183594 522.417969 362.675781 521.59375 363.128906 520.742188 C 363.582031 519.894531 363.992188 519.023438 364.359375 518.132812 C 364.730469 517.242188 365.050781 516.335938 365.332031 515.414062 C 365.609375 514.492188 365.84375 513.558594 366.027344 512.613281 C 366.214844 511.671875 366.355469 510.71875 366.449219 509.761719 C 366.539062 508.800781 366.585938 507.839844 366.585938 506.878906 C 366.574219 506.40625 366.535156 505.933594 366.464844 505.46875 L 366.464844 505.410156 L 366.511719 505.410156 C 366.980469 505.480469 367.453125 505.519531 367.929688 505.527344 C 368.890625 505.53125 369.851562 505.484375 370.8125 505.390625 C 371.769531 505.296875 372.722656 505.15625 373.664062 504.96875 C 374.609375 504.78125 375.542969 504.546875 376.464844 504.269531 C 377.386719 503.988281 378.292969 503.664062 379.183594 503.296875 C 380.074219 502.929688 380.941406 502.519531 381.792969 502.0625 C 382.640625 501.609375 383.46875 501.117188 384.269531 500.582031 C 385.070312 500.046875 385.839844 499.472656 386.585938 498.863281 C 387.332031 498.253906 388.042969 497.605469 388.722656 496.925781 C 389.40625 496.246094 390.050781 495.53125 390.660156 494.789062 C 391.273438 494.042969 391.847656 493.269531 392.378906 492.46875 C 392.914062 491.667969 393.410156 490.84375 393.863281 489.996094 C 394.316406 489.144531 394.726562 488.277344 395.097656 487.386719 C 395.464844 486.496094 395.789062 485.59375 396.066406 484.671875 C 396.347656 483.75 396.582031 482.816406 396.769531 481.871094 C 396.953125 480.925781 397.09375 479.976562 397.1875 479.015625 C 397.285156 478.058594 397.328125 477.097656 397.328125 476.136719 C 397.320312 475.660156 397.28125 475.1875 397.210938 474.71875 L 397.210938 474.671875 L 397.257812 474.671875 C 397.726562 474.742188 398.199219 474.785156 398.671875 474.792969 L 399.316406 474.761719 C 399.953125 474.75 400.585938 474.71875 401.21875 474.664062 C 401.851562 474.613281 402.484375 474.539062 403.113281 474.445312 C 403.742188 474.351562 404.367188 474.238281 404.988281 474.105469 C 405.609375 473.96875 406.222656 473.816406 406.835938 473.640625 C 407.445312 473.46875 408.050781 473.273438 408.648438 473.058594 C 409.25 472.847656 409.839844 472.613281 410.421875 472.359375 C 411.003906 472.109375 411.578125 471.835938 412.144531 471.546875 C 412.710938 471.257812 413.265625 470.949219 413.8125 470.625 C 414.359375 470.296875 414.890625 469.953125 415.414062 469.59375 C 415.9375 469.234375 416.449219 468.855469 416.949219 468.460938 C 417.445312 468.066406 417.929688 467.660156 418.402344 467.234375 C 418.875 466.808594 419.332031 466.367188 419.777344 465.910156 C 420.21875 465.457031 420.648438 464.988281 421.058594 464.503906 C 421.472656 464.019531 421.867188 463.523438 422.25 463.015625 C 422.628906 462.507812 422.992188 461.984375 423.339844 461.453125 C 423.683594 460.921875 424.011719 460.375 424.324219 459.824219 C 424.632812 459.269531 424.925781 458.703125 425.203125 458.132812 C 425.476562 457.558594 425.730469 456.976562 425.964844 456.386719 C 426.203125 455.796875 426.417969 455.199219 426.617188 454.597656 C 426.816406 453.992188 426.992188 453.382812 427.148438 452.769531 C 427.308594 452.152344 427.445312 451.53125 427.5625 450.90625 C 427.679688 450.285156 427.777344 449.65625 427.851562 449.023438 C 427.929688 448.394531 427.984375 447.761719 428.019531 447.128906 C 428.054688 446.492188 428.070312 445.859375 428.0625 445.222656 C 428.054688 444.585938 428.027344 443.953125 427.980469 443.320312 C 427.933594 442.6875 427.867188 442.054688 427.777344 441.425781 C 427.6875 440.796875 427.578125 440.171875 427.449219 439.550781 C 427.320312 438.925781 427.171875 438.308594 427 437.699219 C 426.832031 437.085938 426.640625 436.480469 426.433594 435.878906 C 426.222656 435.28125 425.996094 434.6875 425.746094 434.101562 C 425.5 433.519531 425.230469 432.941406 424.945312 432.375 C 424.660156 431.804688 424.359375 431.25 424.035156 430.699219 C 433.902344 414.226562 442.695312 399.511719 450.300781 386.710938 C 458.308594 373.253906 467.292969 358.039062 477.042969 341.496094 C 477.382812 340.871094 477.652344 340.21875 477.851562 339.535156 C 478.355469 337.5625 478.484375 335.566406 478.238281 333.546875 C 477.988281 331.523438 477.378906 329.621094 476.410156 327.828125 Z M 183.144531 453.78125 L 183.007812 453.925781 C 182.351562 454.558594 181.632812 455.125 180.863281 455.621094 C 180.09375 456.113281 179.285156 456.53125 178.433594 456.867188 C 177.582031 457.203125 176.703125 457.453125 175.804688 457.621094 C 174.902344 457.785156 173.996094 457.863281 173.082031 457.847656 C 172.164062 457.835938 171.257812 457.738281 170.363281 457.546875 C 169.46875 457.359375 168.597656 457.085938 167.757812 456.726562 C 166.914062 456.367188 166.113281 455.929688 165.359375 455.414062 C 164.601562 454.902344 163.902344 454.316406 163.257812 453.664062 C 162.617188 453.015625 162.042969 452.304688 161.539062 451.542969 C 161.035156 450.777344 160.609375 449.972656 160.261719 449.125 C 159.914062 448.277344 159.652344 447.40625 159.476562 446.507812 C 159.296875 445.609375 159.210938 444.703125 159.210938 443.789062 C 159.210938 442.875 159.300781 441.964844 159.480469 441.070312 C 159.65625 440.171875 159.921875 439.300781 160.269531 438.453125 C 160.617188 437.605469 161.046875 436.800781 161.550781 436.039062 C 162.054688 435.277344 162.632812 434.570312 163.273438 433.917969 L 196.8125 400.394531 C 197.464844 399.761719 198.175781 399.195312 198.941406 398.699219 C 199.710938 398.199219 200.515625 397.78125 201.363281 397.441406 C 202.210938 397.101562 203.082031 396.847656 203.980469 396.679688 C 204.878906 396.507812 205.78125 396.425781 206.695312 396.433594 C 207.609375 396.441406 208.511719 396.535156 209.40625 396.71875 C 210.300781 396.902344 211.171875 397.167969 212.015625 397.523438 C 212.855469 397.875 213.65625 398.304688 214.414062 398.8125 C 215.171875 399.320312 215.875 399.898438 216.523438 400.542969 C 217.167969 401.1875 217.746094 401.890625 218.253906 402.648438 C 218.761719 403.40625 219.195312 404.207031 219.546875 405.046875 C 219.902344 405.890625 220.167969 406.757812 220.351562 407.652344 C 220.535156 408.546875 220.632812 409.449219 220.640625 410.363281 C 220.648438 411.277344 220.566406 412.179688 220.398438 413.078125 C 220.230469 413.976562 219.972656 414.847656 219.636719 415.695312 C 219.296875 416.542969 218.878906 417.351562 218.382812 418.117188 C 217.886719 418.882812 217.320312 419.59375 216.683594 420.25 Z M 213.882812 484.503906 C 212.566406 485.816406 211.046875 486.828125 209.324219 487.535156 C 207.601562 488.246094 205.808594 488.59375 203.949219 488.585938 L 203.464844 488.609375 C 201.714844 488.554688 200.035156 488.183594 198.421875 487.492188 C 196.8125 486.804688 195.382812 485.847656 194.132812 484.621094 L 193.953125 484.441406 C 193.3125 483.785156 192.738281 483.074219 192.238281 482.304688 C 191.734375 481.539062 191.3125 480.730469 190.964844 479.878906 C 190.621094 479.027344 190.363281 478.152344 190.1875 477.253906 C 190.015625 476.351562 189.929688 475.445312 189.929688 474.527344 C 189.933594 473.609375 190.023438 472.703125 190.203125 471.800781 C 190.386719 470.902344 190.648438 470.03125 191 469.183594 C 191.351562 468.332031 191.777344 467.527344 192.285156 466.765625 C 192.792969 466 193.371094 465.292969 194.015625 464.640625 L 227.425781 431.175781 L 227.699219 430.890625 C 229.007812 429.664062 230.492188 428.726562 232.160156 428.070312 C 233.828125 427.414062 235.558594 427.09375 237.351562 427.101562 L 237.796875 427.101562 C 239.589844 427.152344 241.304688 427.535156 242.949219 428.246094 C 244.589844 428.957031 246.042969 429.949219 247.304688 431.21875 L 247.578125 431.46875 C 248.804688 432.773438 249.742188 434.261719 250.398438 435.929688 C 251.054688 437.597656 251.375 439.328125 251.367188 441.121094 L 251.394531 441.605469 C 251.335938 443.382812 250.949219 445.089844 250.238281 446.722656 C 249.527344 448.355469 248.539062 449.796875 247.273438 451.050781 Z M 244.621094 515.242188 C 243.96875 515.890625 243.257812 516.472656 242.488281 516.980469 C 241.722656 517.488281 240.910156 517.917969 240.058594 518.269531 C 239.207031 518.621094 238.328125 518.886719 237.425781 519.0625 C 236.523438 519.242188 235.609375 519.332031 234.6875 519.332031 C 233.765625 519.332031 232.855469 519.242188 231.949219 519.0625 C 231.046875 518.886719 230.167969 518.621094 229.316406 518.269531 C 228.464844 517.917969 227.65625 517.488281 226.886719 516.980469 C 226.117188 516.472656 225.40625 515.890625 224.753906 515.242188 L 224.300781 515.695312 L 224.691406 515.183594 C 224.050781 514.527344 223.480469 513.8125 222.976562 513.046875 C 222.472656 512.28125 222.050781 511.472656 221.707031 510.621094 C 221.359375 509.769531 221.101562 508.894531 220.925781 507.996094 C 220.753906 507.09375 220.667969 506.1875 220.671875 505.269531 C 220.671875 504.351562 220.765625 503.445312 220.945312 502.542969 C 221.125 501.644531 221.390625 500.769531 221.738281 499.921875 C 222.089844 499.074219 222.519531 498.269531 223.023438 497.503906 C 223.53125 496.742188 224.109375 496.03125 224.753906 495.382812 L 257.449219 462.699219 C 258.097656 462.054688 258.804688 461.480469 259.566406 460.976562 C 260.328125 460.46875 261.128906 460.042969 261.972656 459.691406 C 262.816406 459.34375 263.6875 459.078125 264.582031 458.894531 C 265.476562 458.714844 266.382812 458.621094 267.296875 458.613281 C 268.210938 458.609375 269.117188 458.691406 270.015625 458.863281 C 270.910156 459.03125 271.785156 459.285156 272.632812 459.625 C 273.480469 459.964844 274.289062 460.382812 275.058594 460.878906 C 275.824219 461.375 276.535156 461.941406 277.195312 462.574219 L 277.386719 462.765625 C 278.027344 463.421875 278.597656 464.132812 279.101562 464.898438 C 279.605469 465.667969 280.027344 466.476562 280.371094 467.324219 C 280.71875 468.175781 280.976562 469.050781 281.152344 469.949219 C 281.324219 470.851562 281.410156 471.761719 281.40625 472.675781 C 281.40625 473.59375 281.3125 474.503906 281.132812 475.402344 C 280.953125 476.300781 280.6875 477.175781 280.335938 478.023438 C 279.984375 478.871094 279.554688 479.675781 279.046875 480.4375 C 278.539062 481.203125 277.964844 481.910156 277.316406 482.5625 Z M 275.351562 545.976562 C 274.695312 546.621094 273.980469 547.199219 273.210938 547.707031 C 272.445312 548.214844 271.632812 548.644531 270.78125 548.992188 C 269.925781 549.34375 269.046875 549.605469 268.144531 549.785156 C 267.238281 549.960938 266.324219 550.050781 265.402344 550.046875 C 264.480469 550.046875 263.570312 549.957031 262.664062 549.777344 C 261.761719 549.597656 260.882812 549.332031 260.03125 548.980469 C 259.179688 548.628906 258.367188 548.199219 257.601562 547.6875 C 256.832031 547.179688 256.121094 546.597656 255.46875 545.949219 L 255.1875 545.675781 C 254.574219 545.015625 254.027344 544.300781 253.550781 543.535156 C 253.070312 542.769531 252.667969 541.964844 252.34375 541.121094 C 252.023438 540.277344 251.78125 539.414062 251.621094 538.523438 C 251.464844 537.632812 251.390625 536.738281 251.40625 535.835938 C 251.421875 534.929688 251.519531 534.039062 251.703125 533.152344 C 251.890625 532.269531 252.15625 531.410156 252.507812 530.578125 C 252.855469 529.746094 253.28125 528.953125 253.78125 528.203125 C 254.285156 527.453125 254.851562 526.753906 255.488281 526.113281 L 288.1875 493.417969 C 288.84375 492.769531 289.550781 492.1875 290.320312 491.675781 C 291.085938 491.164062 291.894531 490.730469 292.75 490.378906 C 293.601562 490.027344 294.480469 489.761719 295.382812 489.582031 C 296.289062 489.402344 297.203125 489.316406 298.125 489.316406 C 299.046875 489.316406 299.960938 489.40625 300.863281 489.585938 C 301.769531 489.769531 302.644531 490.035156 303.496094 490.386719 C 304.347656 490.742188 305.160156 491.175781 305.925781 491.6875 C 306.691406 492.199219 307.402344 492.78125 308.050781 493.433594 C 308.703125 494.085938 309.285156 494.796875 309.796875 495.5625 C 310.308594 496.328125 310.742188 497.140625 311.09375 497.992188 C 311.445312 498.84375 311.714844 499.722656 311.894531 500.625 C 312.074219 501.53125 312.164062 502.441406 312.160156 503.363281 C 312.160156 504.285156 312.070312 505.199219 311.890625 506.105469 C 311.710938 507.007812 311.445312 507.886719 311.089844 508.738281 C 310.738281 509.589844 310.304688 510.398438 309.792969 511.164062 C 309.28125 511.929688 308.699219 512.640625 308.046875 513.292969 Z M 320.484375 537.566406 C 320.488281 539.433594 320.136719 541.226562 319.421875 542.949219 C 318.707031 544.671875 317.6875 546.191406 316.363281 547.503906 L 316.082031 547.804688 C 315.417969 548.417969 314.703125 548.964844 313.9375 549.441406 C 313.171875 549.921875 312.367188 550.320312 311.523438 550.644531 C 310.679688 550.96875 309.8125 551.210938 308.921875 551.367188 C 308.035156 551.523438 307.136719 551.597656 306.234375 551.582031 C 305.332031 551.566406 304.4375 551.46875 303.550781 551.28125 C 302.667969 551.097656 301.808594 550.828125 300.976562 550.476562 C 300.144531 550.128906 299.351562 549.703125 298.601562 549.199219 C 297.851562 548.699219 297.152344 548.128906 296.511719 547.492188 C 296.34375 547.332031 296.160156 547.191406 295.960938 547.070312 L 315.945312 527.09375 C 316.070312 527.292969 316.210938 527.476562 316.375 527.640625 L 316.65625 527.917969 C 317.8125 529.144531 318.714844 530.527344 319.371094 532.078125 C 320.023438 533.628906 320.386719 535.242188 320.457031 536.925781 Z M 408.652344 455.304688 C 407.421875 456.550781 406.007812 457.527344 404.40625 458.238281 C 402.808594 458.949219 401.132812 459.34375 399.382812 459.425781 L 398.738281 459.425781 C 396.878906 459.433594 395.085938 459.085938 393.363281 458.378906 C 391.640625 457.667969 390.121094 456.65625 388.804688 455.339844 L 330.664062 397.199219 C 330.304688 396.855469 329.917969 396.546875 329.496094 396.277344 C 329.078125 396.007812 328.636719 395.78125 328.171875 395.597656 C 327.710938 395.414062 327.234375 395.277344 326.742188 395.183594 C 326.253906 395.09375 325.757812 395.050781 325.261719 395.054688 C 324.761719 395.0625 324.269531 395.113281 323.78125 395.214844 C 323.292969 395.316406 322.820312 395.460938 322.359375 395.65625 C 321.902344 395.847656 321.464844 396.082031 321.050781 396.363281 C 320.636719 396.640625 320.253906 396.953125 319.902344 397.308594 C 319.550781 397.660156 319.234375 398.042969 318.957031 398.457031 C 318.679688 398.871094 318.441406 399.304688 318.25 399.765625 C 318.054688 400.222656 317.910156 400.699219 317.808594 401.1875 C 317.707031 401.675781 317.65625 402.167969 317.648438 402.664062 C 317.644531 403.164062 317.6875 403.65625 317.777344 404.148438 C 317.871094 404.636719 318.007812 405.113281 318.191406 405.578125 C 318.375 406.039062 318.601562 406.480469 318.871094 406.898438 C 319.140625 407.320312 319.449219 407.707031 319.792969 408.066406 L 377.902344 466.164062 C 378.542969 466.808594 379.113281 467.511719 379.621094 468.269531 C 380.125 469.023438 380.550781 469.824219 380.902344 470.660156 C 381.25 471.5 381.519531 472.363281 381.703125 473.253906 C 381.886719 474.144531 381.984375 475.046875 381.992188 475.953125 C 382.003906 476.863281 381.925781 477.765625 381.761719 478.660156 C 381.597656 479.554688 381.351562 480.425781 381.019531 481.269531 C 380.6875 482.117188 380.28125 482.925781 379.792969 483.691406 C 379.304688 484.460938 378.75 485.175781 378.125 485.835938 L 377.902344 486.027344 C 377.25 486.671875 376.539062 487.25 375.773438 487.761719 C 375.003906 488.269531 374.195312 488.699219 373.34375 489.046875 C 372.492188 489.398438 371.617188 489.664062 370.714844 489.839844 C 369.808594 490.019531 368.898438 490.109375 367.976562 490.109375 C 367.058594 490.109375 366.144531 490.019531 365.242188 489.839844 C 364.339844 489.664062 363.460938 489.398438 362.609375 489.046875 C 361.757812 488.699219 360.949219 488.269531 360.183594 487.761719 C 359.417969 487.25 358.707031 486.671875 358.050781 486.027344 L 299.925781 427.925781 C 299.570312 427.566406 299.179688 427.25 298.761719 426.96875 C 298.339844 426.6875 297.898438 426.449219 297.429688 426.257812 C 296.964844 426.0625 296.484375 425.917969 295.988281 425.820312 C 295.492188 425.722656 294.992188 425.671875 294.488281 425.671875 C 293.980469 425.671875 293.480469 425.71875 292.984375 425.820312 C 292.492188 425.917969 292.011719 426.0625 291.542969 426.257812 C 291.078125 426.449219 290.632812 426.6875 290.214844 426.96875 C 289.792969 427.25 289.40625 427.566406 289.046875 427.925781 C 288.691406 428.28125 288.371094 428.667969 288.089844 429.089844 C 287.8125 429.511719 287.574219 429.953125 287.382812 430.417969 C 287.1875 430.886719 287.042969 431.367188 286.945312 431.863281 C 286.847656 432.359375 286.796875 432.859375 286.796875 433.363281 C 286.796875 433.867188 286.847656 434.367188 286.945312 434.863281 C 287.042969 435.359375 287.191406 435.839844 287.382812 436.304688 C 287.578125 436.773438 287.816406 437.214844 288.097656 437.632812 C 288.378906 438.054688 288.695312 438.441406 289.054688 438.800781 L 347.179688 496.894531 C 347.816406 497.550781 348.386719 498.261719 348.882812 499.027344 C 349.382812 499.792969 349.804688 500.601562 350.144531 501.449219 C 350.484375 502.296875 350.742188 503.167969 350.914062 504.066406 C 351.082031 504.964844 351.164062 505.871094 351.160156 506.785156 C 351.152344 507.699219 351.058594 508.605469 350.875 509.5 C 350.691406 510.398438 350.425781 511.265625 350.070312 512.109375 C 349.71875 512.953125 349.289062 513.753906 348.777344 514.515625 C 348.269531 515.273438 347.691406 515.976562 347.046875 516.625 C 346.398438 517.269531 345.695312 517.847656 344.9375 518.355469 C 344.179688 518.867188 343.375 519.296875 342.53125 519.652344 C 341.691406 520.003906 340.820312 520.273438 339.925781 520.457031 C 339.027344 520.640625 338.125 520.734375 337.207031 520.742188 C 336.292969 520.746094 335.386719 520.664062 334.488281 520.496094 C 333.589844 520.324219 332.71875 520.070312 331.867188 519.730469 C 331.019531 519.386719 330.210938 518.96875 329.445312 518.472656 C 328.679688 517.972656 327.96875 517.40625 327.3125 516.769531 C 326.628906 516.09375 325.839844 515.582031 324.949219 515.222656 C 325.554688 513.886719 326.058594 512.515625 326.457031 511.105469 C 326.855469 509.695312 327.148438 508.261719 327.328125 506.804688 C 327.511719 505.351562 327.582031 503.890625 327.542969 502.425781 C 327.503906 500.957031 327.355469 499.503906 327.097656 498.0625 C 326.839844 496.617188 326.472656 495.203125 326 493.8125 C 325.527344 492.425781 324.949219 491.082031 324.273438 489.78125 C 323.597656 488.480469 322.824219 487.238281 321.960938 486.054688 C 321.097656 484.867188 320.148438 483.757812 319.113281 482.714844 L 318.964844 482.550781 C 317.601562 481.183594 316.117188 479.960938 314.507812 478.890625 C 312.902344 477.816406 311.207031 476.910156 309.421875 476.171875 C 307.636719 475.4375 305.796875 474.882812 303.898438 474.511719 C 302.003906 474.136719 300.089844 473.957031 298.160156 473.964844 C 297.6875 473.972656 297.21875 474.011719 296.753906 474.078125 L 296.691406 474.078125 L 296.691406 474.023438 C 296.761719 473.558594 296.804688 473.085938 296.816406 472.613281 C 296.574219 468.320312 295.664062 464.175781 294.082031 460.175781 C 292.605469 456.867188 290.664062 453.855469 288.257812 451.148438 C 285.550781 448.261719 282.464844 445.867188 278.996094 443.957031 C 275.53125 442.050781 271.851562 440.726562 267.964844 439.988281 C 267.914062 438.121094 267.695312 436.277344 267.3125 434.449219 C 266.929688 432.621094 266.390625 430.84375 265.691406 429.113281 C 264.992188 427.382812 264.144531 425.726562 263.152344 424.144531 C 262.160156 422.5625 261.035156 421.082031 259.777344 419.703125 C 258.273438 418.136719 256.628906 416.734375 254.839844 415.5 C 253.054688 414.265625 251.160156 413.226562 249.160156 412.378906 C 247.160156 411.53125 245.09375 410.894531 242.964844 410.464844 C 240.835938 410.039062 238.683594 409.828125 236.511719 409.839844 C 236.25 405.140625 235.015625 400.71875 232.804688 396.566406 C 231.40625 393.960938 229.664062 391.609375 227.585938 389.507812 C 226.902344 388.828125 226.191406 388.183594 225.445312 387.574219 C 224.699219 386.964844 223.925781 386.390625 223.125 385.859375 C 222.320312 385.324219 221.496094 384.832031 220.644531 384.378906 C 219.796875 383.925781 218.925781 383.515625 218.035156 383.148438 C 217.144531 382.78125 216.238281 382.457031 215.316406 382.175781 C 214.394531 381.898438 213.464844 381.664062 212.519531 381.476562 C 211.574219 381.289062 210.621094 381.148438 209.664062 381.054688 C 208.703125 380.960938 207.742188 380.914062 206.78125 380.914062 C 205.816406 380.914062 204.855469 380.960938 203.898438 381.054688 C 202.941406 381.148438 201.988281 381.289062 201.042969 381.476562 C 200.097656 381.664062 199.164062 381.898438 198.242188 382.175781 C 197.320312 382.457031 196.414062 382.78125 195.527344 383.148438 C 194.636719 383.515625 193.765625 383.925781 192.914062 384.378906 C 192.066406 384.832031 191.238281 385.324219 190.4375 385.859375 C 189.636719 386.390625 188.863281 386.964844 188.117188 387.574219 C 187.371094 388.183594 186.65625 388.828125 185.976562 389.507812 L 159.402344 416.074219 C 145.347656 392.582031 132.804688 371.507812 121.074219 351.675781 C 108.335938 330.140625 96.074219 309.261719 84.507812 289.414062 L 175.71875 225.835938 L 178.257812 229.59375 L 185.773438 240.566406 C 189.773438 246.933594 194.527344 252.671875 200.039062 257.78125 C 202.578125 259.933594 205.378906 261.652344 208.445312 262.945312 C 211.511719 264.238281 214.699219 265.042969 218.011719 265.355469 C 221.210938 265.742188 224.425781 265.929688 227.648438 265.921875 C 230.738281 265.96875 234.199219 265.855469 239.230469 265.632812 C 240.375 265.582031 241.582031 265.511719 242.789062 265.445312 L 242.886719 265.445312 L 212.621094 295.691406 C 211.945312 296.371094 211.300781 297.078125 210.695312 297.820312 C 210.085938 298.5625 209.515625 299.332031 208.984375 300.128906 C 208.453125 300.925781 207.960938 301.746094 207.507812 302.589844 C 207.054688 303.433594 206.644531 304.300781 206.277344 305.183594 C 205.910156 306.070312 205.585938 306.96875 205.308594 307.886719 C 205.027344 308.804688 204.792969 309.730469 204.605469 310.671875 C 204.414062 311.609375 204.273438 312.558594 204.175781 313.511719 C 204.078125 314.464844 204.03125 315.417969 204.027344 316.378906 C 204.023438 317.335938 204.066406 318.292969 204.15625 319.246094 C 204.25 320.199219 204.386719 321.148438 204.570312 322.085938 C 204.75 323.027344 204.980469 323.957031 205.253906 324.875 C 205.527344 325.792969 205.847656 326.695312 206.207031 327.582031 C 206.570312 328.472656 206.972656 329.339844 207.421875 330.1875 C 207.867188 331.035156 208.355469 331.859375 208.882812 332.65625 C 209.410156 333.457031 209.976562 334.230469 210.578125 334.976562 C 211.179688 335.71875 211.820312 336.433594 212.492188 337.117188 L 212.632812 337.261719 C 213.304688 337.929688 214.007812 338.566406 214.742188 339.167969 C 215.472656 339.773438 216.234375 340.335938 217.023438 340.867188 C 217.8125 341.394531 218.625 341.882812 219.460938 342.335938 C 220.296875 342.785156 221.152344 343.191406 222.027344 343.558594 C 222.902344 343.925781 223.796875 344.25 224.703125 344.53125 C 225.609375 344.8125 226.527344 345.050781 227.457031 345.242188 C 228.386719 345.433594 229.324219 345.582031 230.269531 345.683594 C 231.210938 345.785156 232.160156 345.839844 233.109375 345.851562 C 234.058594 345.859375 235.007812 345.824219 235.953125 345.742188 C 236.898438 345.660156 237.835938 345.535156 238.773438 345.363281 C 239.707031 345.1875 240.628906 344.972656 241.542969 344.710938 C 242.453125 344.449219 243.351562 344.144531 244.234375 343.792969 C 245.117188 343.445312 245.980469 343.054688 246.828125 342.621094 C 247.671875 342.191406 248.496094 341.71875 249.292969 341.207031 C 250.09375 340.691406 250.867188 340.144531 251.613281 339.558594 C 252.359375 338.96875 253.078125 338.347656 253.761719 337.691406 L 282.332031 309.164062 L 408.652344 435.433594 C 409.300781 436.085938 409.878906 436.796875 410.390625 437.566406 C 410.898438 438.335938 411.328125 439.144531 411.679688 439.996094 C 412.03125 440.847656 412.296875 441.726562 412.472656 442.628906 C 412.652344 443.535156 412.742188 444.445312 412.742188 445.367188 C 412.742188 446.289062 412.652344 447.203125 412.472656 448.105469 C 412.296875 449.011719 412.03125 449.886719 411.679688 450.742188 C 411.328125 451.59375 410.898438 452.402344 410.390625 453.171875 C 409.878906 453.9375 409.300781 454.648438 408.652344 455.304688 Z M 437.117188 378.886719 C 428.6875 393.066406 420.824219 406.246094 413.464844 418.53125 L 287.832031 292.960938 L 287.742188 292.855469 C 287.382812 292.496094 286.996094 292.179688 286.574219 291.898438 C 286.15625 291.617188 285.714844 291.382812 285.246094 291.1875 C 284.78125 290.996094 284.300781 290.851562 283.804688 290.753906 C 283.308594 290.652344 282.808594 290.605469 282.304688 290.605469 C 281.800781 290.605469 281.300781 290.652344 280.804688 290.753906 C 280.3125 290.851562 279.832031 290.996094 279.363281 291.1875 C 278.898438 291.382812 278.453125 291.617188 278.035156 291.898438 C 277.613281 292.179688 277.226562 292.496094 276.871094 292.855469 L 243.054688 326.683594 C 242.386719 327.292969 241.664062 327.828125 240.890625 328.296875 C 240.121094 328.761719 239.308594 329.152344 238.460938 329.460938 C 237.613281 329.773438 236.742188 330 235.851562 330.144531 C 234.960938 330.289062 234.0625 330.34375 233.160156 330.316406 C 232.257812 330.285156 231.363281 330.171875 230.484375 329.96875 C 229.605469 329.769531 228.75 329.484375 227.925781 329.121094 C 227.097656 328.753906 226.316406 328.3125 225.574219 327.796875 C 224.832031 327.28125 224.148438 326.699219 223.519531 326.050781 C 222.890625 325.402344 222.328125 324.699219 221.835938 323.941406 C 221.34375 323.1875 220.925781 322.390625 220.585938 321.554688 C 220.246094 320.71875 219.988281 319.855469 219.816406 318.96875 C 219.640625 318.082031 219.554688 317.1875 219.550781 316.285156 C 219.550781 315.382812 219.636719 314.488281 219.808594 313.601562 C 219.976562 312.714844 220.230469 311.851562 220.570312 311.015625 C 220.90625 310.175781 221.320312 309.378906 221.8125 308.621094 C 222.300781 307.863281 222.859375 307.160156 223.488281 306.507812 L 256.867188 273.144531 C 273.554688 258.589844 301.933594 261.40625 326.972656 263.878906 L 327.4375 263.925781 C 334.710938 264.644531 341.585938 265.324219 348.179688 265.613281 C 352.816406 265.835938 357.449219 265.828125 362.082031 265.582031 C 366.570312 265.347656 370.996094 264.699219 375.359375 263.636719 C 379.589844 262.554688 383.492188 260.757812 387.066406 258.246094 C 388.402344 257.292969 389.679688 256.261719 390.898438 255.15625 L 462.726562 335.667969 C 455.515625 347.824219 446.957031 362.308594 437.105469 378.886719 Z M 437.117188 378.886719 " fill-opacity="1" fill-rule="nonzero"/></g></svg>