<svg xmlns="http://www.w3.org/2000/svg" xmlns:xlink="http://www.w3.org/1999/xlink" width="1920" zoomAndPan="magnify" viewBox="0 0 1440 809.999993" height="1080" preserveAspectRatio="xMidYMid meet" version="1.0"><defs><clipPath id="fe2c8f357f"><path d="M 291.21875 64.300781 L 1148.949219 64.300781 L 1148.949219 745.058594 L 291.21875 745.058594 Z M 291.21875 64.300781 " clip-rule="nonzero"/></clipPath></defs><g clip-path="url(#fe2c8f357f)"><path fill="#000000" d="M 1100.199219 184.980469 L 867.578125 184.980469 L 867.578125 114.035156 C 867.578125 86.632812 845.453125 64.339844 818.257812 64.339844 L 340.535156 64.339844 C 313.339844 64.339844 291.21875 86.632812 291.21875 114.035156 L 291.21875 439.851562 C 291.21875 467.253906 313.339844 489.546875 340.535156 489.546875 L 502.246094 489.546875 L 502.246094 553.996094 L 431.675781 553.996094 C 427.917969 553.996094 424.867188 557.042969 424.867188 560.800781 L 424.867188 603.378906 C 424.867188 607.136719 427.917969 610.1875 431.675781 610.1875 L 614.792969 610.1875 L 614.792969 696.191406 C 614.792969 723.117188 636.699219 745.019531 663.625 745.019531 L 818.746094 745.019531 C 845.671875 745.019531 867.574219 723.117188 867.574219 696.191406 L 867.574219 666.957031 L 1100.195312 666.957031 C 1127.078125 666.957031 1148.945312 644.921875 1148.945312 617.835938 L 1148.945312 234.097656 C 1148.949219 207.011719 1127.078125 184.980469 1100.199219 184.980469 Z M 614.792969 596.574219 L 438.484375 596.574219 L 438.484375 567.609375 L 614.792969 567.609375 Z M 614.792969 553.996094 L 515.863281 553.996094 L 515.863281 489.546875 L 614.792969 489.546875 Z M 614.792969 475.933594 L 340.535156 475.933594 C 320.847656 475.933594 304.832031 459.746094 304.832031 439.851562 L 304.832031 404.390625 L 614.792969 404.390625 Z M 614.792969 390.777344 L 304.832031 390.777344 L 304.832031 114.035156 C 304.832031 94.136719 320.847656 77.953125 340.535156 77.953125 L 818.257812 77.953125 C 837.945312 77.953125 853.960938 94.136719 853.960938 114.035156 L 853.960938 184.980469 L 818.296875 184.980469 C 791.417969 184.980469 769.550781 207.015625 769.550781 234.097656 L 769.550781 305.617188 L 663.621094 305.617188 C 636.699219 305.617188 614.792969 327.519531 614.792969 354.441406 Z M 801.242188 319.230469 L 785.921875 355.292969 L 696.449219 355.292969 L 681.128906 319.230469 Z M 853.960938 696.191406 C 853.960938 715.609375 838.164062 731.40625 818.746094 731.40625 L 663.625 731.40625 C 644.207031 731.40625 628.410156 715.609375 628.410156 696.191406 L 628.410156 354.441406 C 628.410156 335.027344 644.207031 319.230469 663.625 319.230469 L 666.339844 319.230469 L 685.683594 364.761719 C 686.75 367.273438 689.214844 368.90625 691.949219 368.90625 L 790.429688 368.90625 C 793.160156 368.90625 795.625 367.273438 796.695312 364.761719 L 816.035156 319.230469 L 818.75 319.230469 C 838.167969 319.230469 853.964844 335.027344 853.964844 354.441406 L 853.964844 696.191406 Z M 1135.332031 617.839844 C 1135.332031 637.417969 1119.574219 653.34375 1100.199219 653.34375 L 867.578125 653.34375 L 867.578125 567.609375 L 1135.332031 567.609375 Z M 1135.332031 553.996094 L 867.578125 553.996094 L 867.578125 354.441406 C 867.578125 327.519531 845.671875 305.617188 818.746094 305.617188 L 783.164062 305.617188 L 783.164062 283.75 L 1135.332031 283.75 Z M 1135.332031 270.136719 L 783.164062 270.136719 L 783.164062 234.097656 C 783.164062 214.519531 798.925781 198.59375 818.300781 198.59375 L 1100.199219 198.59375 C 1119.574219 198.59375 1135.332031 214.519531 1135.332031 234.097656 Z M 1135.332031 270.136719 " fill-opacity="1" fill-rule="nonzero"/></g><path fill="#000000" d="M 959.25 213.367188 C 947.738281 213.367188 938.371094 222.785156 938.371094 234.363281 C 938.371094 245.941406 947.738281 255.363281 959.25 255.363281 C 970.761719 255.363281 980.125 245.941406 980.125 234.363281 C 980.125 222.785156 970.761719 213.367188 959.25 213.367188 Z M 959.25 241.75 C 955.242188 241.75 951.988281 238.4375 951.988281 234.363281 C 951.988281 230.292969 955.242188 226.980469 959.25 226.980469 C 963.253906 226.980469 966.511719 230.292969 966.511719 234.363281 C 966.511719 238.4375 963.253906 241.75 959.25 241.75 Z M 959.25 241.75 " fill-opacity="1" fill-rule="nonzero"/><path fill="#000000" d="M 959.25 638.570312 C 974.636719 638.570312 987.160156 625.96875 987.160156 610.476562 C 987.160156 594.984375 974.636719 582.378906 959.25 582.378906 C 943.859375 582.378906 931.339844 594.984375 931.339844 610.476562 C 931.339844 625.96875 943.859375 638.570312 959.25 638.570312 Z M 959.25 595.992188 C 967.132812 595.992188 973.542969 602.488281 973.542969 610.476562 C 973.542969 618.460938 967.132812 624.957031 959.25 624.957031 C 951.367188 624.957031 944.953125 618.460938 944.953125 610.476562 C 944.953125 602.488281 951.367188 595.992188 959.25 595.992188 Z M 959.25 595.992188 " fill-opacity="1" fill-rule="nonzero"/><path fill="#000000" d="M 788.035156 480.621094 C 790.785156 478.054688 790.933594 473.746094 788.371094 471 C 785.804688 468.25 781.496094 468.097656 778.746094 470.664062 C 757.65625 490.34375 738.425781 512.167969 721.59375 535.53125 C 697.753906 568.625 678.527344 604.992188 664.449219 643.625 C 663.160156 647.160156 664.980469 651.066406 668.511719 652.351562 C 669.28125 652.632812 670.070312 652.765625 670.84375 652.765625 C 673.621094 652.765625 676.234375 651.050781 677.242188 648.289062 C 690.890625 610.828125 709.53125 575.566406 732.640625 543.488281 C 748.953125 520.847656 767.589844 499.691406 788.035156 480.621094 Z M 788.035156 480.621094 " fill-opacity="1" fill-rule="nonzero"/><path fill="#000000" d="M 799.777344 527.878906 C 789.550781 539.335938 779.8125 551.457031 770.835938 563.917969 C 762.5 575.488281 754.628906 587.609375 747.445312 599.953125 C 745.550781 603.203125 746.652344 607.371094 749.902344 609.261719 C 750.976562 609.890625 752.15625 610.1875 753.320312 610.1875 C 755.664062 610.1875 757.945312 608.972656 759.207031 606.804688 C 766.175781 594.839844 773.804688 583.089844 781.882812 571.875 C 790.582031 559.800781 800.019531 548.046875 809.933594 536.949219 C 812.4375 534.144531 812.195312 529.839844 809.390625 527.335938 C 806.585938 524.832031 802.28125 525.074219 799.777344 527.878906 Z M 799.777344 527.878906 " fill-opacity="1" fill-rule="nonzero"/><path fill="#000000" d="M 881.769531 478.632812 C 882.785156 479.167969 883.875 479.425781 884.949219 479.425781 C 887.386719 479.425781 889.75 478.105469 890.96875 475.800781 C 909.601562 440.597656 932.878906 408.265625 960.148438 379.703125 C 979.398438 359.542969 1000.746094 341.183594 1023.59375 325.132812 C 1026.671875 322.972656 1027.414062 318.726562 1025.253906 315.648438 C 1023.09375 312.574219 1018.84375 311.832031 1015.769531 313.992188 C 992.191406 330.550781 970.164062 349.5 950.300781 370.300781 C 922.167969 399.769531 898.15625 433.121094 878.9375 469.429688 C 877.175781 472.753906 878.445312 476.875 881.769531 478.632812 Z M 881.769531 478.632812 " fill-opacity="1" fill-rule="nonzero"/><path fill="#000000" d="M 995.195312 405.261719 C 985.359375 415.5625 975.90625 426.476562 967.105469 437.703125 C 964.785156 440.664062 965.300781 444.941406 968.261719 447.261719 C 969.507812 448.238281 970.988281 448.710938 972.457031 448.710938 C 974.476562 448.710938 976.476562 447.816406 977.820312 446.101562 C 986.351562 435.222656 995.511719 424.644531 1005.042969 414.660156 C 1015.308594 403.90625 1026.257812 393.582031 1037.59375 383.964844 C 1040.460938 381.53125 1040.8125 377.234375 1038.378906 374.371094 C 1035.949219 371.503906 1031.652344 371.152344 1028.785156 373.582031 C 1017.089844 383.511719 1005.789062 394.167969 995.195312 405.261719 Z M 995.195312 405.261719 " fill-opacity="1" fill-rule="nonzero"/><path fill="#000000" d="M 618.183594 144.929688 C 621.148438 142.617188 621.671875 138.339844 619.359375 135.375 C 617.046875 132.410156 612.765625 131.886719 609.804688 134.199219 C 581.484375 156.316406 555.242188 181.300781 531.808594 208.460938 C 498.621094 246.929688 470.808594 289.976562 449.144531 336.40625 C 447.554688 339.8125 449.027344 343.863281 452.433594 345.453125 C 453.367188 345.886719 454.347656 346.09375 455.308594 346.09375 C 457.871094 346.09375 460.328125 344.636719 461.480469 342.164062 C 482.617188 296.867188 509.75 254.875 542.117188 217.347656 C 564.972656 190.863281 590.5625 166.496094 618.183594 144.929688 Z M 618.183594 144.929688 " fill-opacity="1" fill-rule="nonzero"/><path fill="#000000" d="M 639.230469 217.613281 C 641.972656 215.039062 642.105469 210.734375 639.53125 207.992188 C 636.957031 205.253906 632.652344 205.121094 629.910156 207.691406 C 615.96875 220.789062 602.5625 234.773438 590.066406 249.257812 C 578.46875 262.703125 567.382812 276.890625 557.121094 291.433594 C 554.949219 294.503906 555.683594 298.75 558.753906 300.917969 C 559.949219 301.761719 561.316406 302.164062 562.675781 302.164062 C 564.8125 302.164062 566.914062 301.160156 568.242188 299.28125 C 578.25 285.101562 589.0625 271.261719 600.375 258.152344 C 612.558594 244.023438 625.632812 230.386719 639.230469 217.613281 Z M 639.230469 217.613281 " fill-opacity="1" fill-rule="nonzero"/></svg>