<svg xmlns="http://www.w3.org/2000/svg" xmlns:xlink="http://www.w3.org/1999/xlink" width="800" zoomAndPan="magnify" viewBox="0 0 600 899.99999" height="1200" preserveAspectRatio="xMidYMid meet" version="1.0"><defs><clipPath id="77dab2e042"><path d="M 93.75 458 L 364 458 L 364 478 L 93.75 478 Z M 93.75 458 " clip-rule="nonzero"/></clipPath><clipPath id="1d74a32456"><path d="M 372 289 L 506.246094 289 L 506.246094 541.53125 L 372 541.53125 Z M 372 289 " clip-rule="nonzero"/></clipPath></defs><path fill="#000000" d="M 147.828125 434.972656 C 145.539062 434.972656 143.667969 433.128906 143.667969 430.835938 L 143.667969 252.203125 C 143.667969 249.910156 145.539062 248.039062 147.828125 248.039062 L 437.316406 248.039062 C 439.578125 248.039062 441.449219 249.910156 441.449219 252.203125 L 441.449219 280.757812 C 448.085938 280.808594 454.691406 281.019531 461.300781 281.390625 L 461.300781 252.203125 C 461.300781 238.925781 450.558594 228.175781 437.316406 228.175781 L 147.828125 228.175781 C 134.558594 228.175781 123.816406 238.925781 123.816406 252.203125 L 123.816406 430.835938 C 123.816406 444.085938 134.558594 454.835938 147.828125 454.835938 L 363.964844 454.835938 L 363.964844 434.972656 Z M 293.824219 234.894531 C 296.378906 234.894531 298.457031 236.976562 298.457031 239.554688 C 298.457031 242.113281 296.378906 244.191406 293.824219 244.191406 C 291.242188 244.191406 289.164062 242.113281 289.164062 239.554688 C 289.164062 236.976562 291.242188 234.894531 293.824219 234.894531 " fill-opacity="1" fill-rule="nonzero"/><g clip-path="url(#77dab2e042)"><path fill="#000000" d="M 355.273438 458.390625 L 355.273438 459.339844 C 355.273438 463.554688 351.851562 466.953125 347.664062 466.953125 L 237.480469 466.953125 C 233.265625 466.953125 229.871094 463.554688 229.871094 459.339844 L 229.871094 458.390625 L 93.75 458.390625 C 93.75 468.851562 102.226562 477.304688 112.652344 477.304688 L 363.964844 477.304688 L 363.964844 458.390625 L 355.273438 458.390625 " fill-opacity="1" fill-rule="nonzero"/></g><path fill="#000000" d="M 400.875 276.886719 L 184.242188 276.886719 C 176.449219 276.886719 170.128906 283.207031 170.128906 290.980469 L 170.128906 324.699219 C 170.128906 332.46875 176.449219 338.792969 184.242188 338.792969 L 363.964844 338.792969 L 363.964844 331.519531 L 184.242188 331.519531 C 180.476562 331.519531 177.421875 328.4375 177.421875 324.699219 L 177.421875 290.980469 C 177.421875 287.238281 180.476562 284.15625 184.242188 284.15625 L 388.898438 284.15625 C 396.425781 283.15625 404.007812 282.339844 411.566406 281.785156 C 408.984375 278.78125 405.167969 276.886719 400.875 276.886719 " fill-opacity="1" fill-rule="nonzero"/><path fill="#000000" d="M 203.699219 303.808594 L 209.148438 306.917969 L 203.699219 310.023438 C 202.539062 310.738281 202.226562 312.371094 202.9375 313.527344 L 205.253906 317.425781 C 206.042969 318.585938 207.597656 318.902344 208.753906 318.191406 L 214.203125 315.082031 L 214.203125 320.535156 C 214.203125 322.089844 215.363281 323.25 216.917969 323.25 L 221.207031 323.25 C 222.761719 323.25 223.921875 322.089844 223.921875 320.535156 L 223.921875 315.082031 L 229.371094 318.191406 C 230.527344 318.902344 232.082031 318.585938 232.871094 317.425781 L 235.1875 313.527344 C 235.898438 312.371094 235.582031 310.738281 234.398438 310.023438 L 228.976562 306.917969 L 234.398438 303.808594 C 235.582031 303.097656 235.980469 301.542969 235.1875 300.304688 L 232.871094 296.40625 C 232.160156 295.246094 230.527344 295.007812 229.371094 295.640625 L 223.921875 298.75 L 223.921875 293.296875 C 223.921875 291.742188 222.761719 290.582031 221.207031 290.582031 L 216.917969 290.582031 C 215.363281 290.582031 214.203125 291.742188 214.203125 293.296875 L 214.203125 298.75 L 208.753906 295.640625 C 207.597656 295.007812 205.964844 295.246094 205.253906 296.40625 L 202.9375 300.304688 C 202.144531 301.542969 202.539062 303.097656 203.699219 303.808594 " fill-opacity="1" fill-rule="nonzero"/><path fill="#000000" d="M 250.117188 303.808594 L 255.566406 306.917969 L 250.117188 310.023438 C 248.957031 310.738281 248.644531 312.371094 249.355469 313.527344 L 251.671875 317.425781 C 252.433594 318.585938 254.015625 318.902344 255.171875 318.191406 L 260.621094 315.082031 L 260.621094 320.535156 C 260.621094 322.089844 261.78125 323.25 263.335938 323.25 L 267.601562 323.25 C 269.152344 323.25 270.335938 322.089844 270.335938 320.535156 L 270.335938 315.082031 L 275.761719 318.191406 C 276.945312 318.902344 278.5 318.585938 279.261719 317.425781 L 281.605469 313.527344 C 282.292969 312.371094 282 310.738281 280.816406 310.023438 L 275.394531 306.917969 L 280.816406 303.808594 C 282 303.097656 282.371094 301.542969 281.605469 300.304688 L 279.261719 296.40625 C 278.578125 295.246094 276.945312 295.007812 275.761719 295.640625 L 270.335938 298.75 L 270.335938 293.296875 C 270.335938 291.742188 269.152344 290.582031 267.601562 290.582031 L 263.335938 290.582031 C 261.78125 290.582031 260.621094 291.742188 260.621094 293.296875 L 260.621094 298.75 L 255.171875 295.640625 C 254.015625 295.007812 252.382812 295.246094 251.671875 296.40625 L 249.355469 300.304688 C 248.5625 301.542969 248.957031 303.097656 250.117188 303.808594 " fill-opacity="1" fill-rule="nonzero"/><path fill="#000000" d="M 296.535156 303.808594 L 301.984375 306.917969 L 296.535156 310.023438 C 295.351562 310.738281 295.0625 312.371094 295.746094 313.527344 L 298.089844 317.425781 C 298.851562 318.585938 300.40625 318.902344 301.589844 318.191406 L 307.039062 315.082031 L 307.039062 320.535156 C 307.039062 322.089844 308.199219 323.25 309.753906 323.25 L 314.015625 323.25 C 315.570312 323.25 316.753906 322.089844 316.753906 320.535156 L 316.753906 315.082031 L 322.179688 318.191406 C 323.363281 318.902344 324.917969 318.585938 325.679688 317.425781 L 328.023438 313.527344 C 328.710938 312.371094 328.417969 310.738281 327.234375 310.023438 L 321.8125 306.917969 L 327.234375 303.808594 C 328.417969 303.097656 328.789062 301.542969 328.023438 300.304688 L 325.679688 296.40625 C 324.996094 295.246094 323.363281 295.007812 322.179688 295.640625 L 316.753906 298.75 L 316.753906 293.296875 C 316.753906 291.742188 315.570312 290.582031 314.015625 290.582031 L 309.753906 290.582031 C 308.199219 290.582031 307.039062 291.742188 307.039062 293.296875 L 307.039062 298.75 L 301.589844 295.640625 C 300.40625 295.007812 298.773438 295.246094 298.089844 296.40625 L 295.746094 300.304688 C 294.980469 301.542969 295.351562 303.097656 296.535156 303.808594 " fill-opacity="1" fill-rule="nonzero"/><path fill="#000000" d="M 363.148438 293.296875 C 363.148438 291.742188 361.988281 290.582031 360.433594 290.582031 L 356.171875 290.582031 C 354.617188 290.582031 353.433594 291.742188 353.433594 293.296875 L 353.433594 298.75 L 348.007812 295.640625 C 346.824219 295.007812 345.191406 295.246094 344.507812 296.40625 L 342.164062 300.304688 C 341.398438 301.542969 341.769531 303.097656 342.953125 303.808594 L 348.375 306.917969 L 342.953125 310.023438 C 341.769531 310.738281 341.476562 312.371094 342.164062 313.527344 L 344.507812 317.425781 C 345.269531 318.585938 346.824219 318.902344 348.007812 318.191406 L 353.433594 315.082031 L 353.433594 320.535156 C 353.433594 322.089844 354.617188 323.25 356.171875 323.25 L 360.433594 323.25 C 361.988281 323.25 363.148438 322.089844 363.148438 320.535156 L 363.148438 315.082031 L 363.964844 315.53125 L 363.964844 305.574219 C 363.964844 302.648438 364.59375 299.832031 365.699219 297.300781 L 363.148438 298.75 L 363.148438 293.296875 " fill-opacity="1" fill-rule="nonzero"/><path fill="#000000" d="M 337.632812 360.023438 L 330.339844 352.753906 L 291.636719 391.480469 L 272.179688 372.011719 L 264.886719 379.28125 L 291.636719 406.046875 L 337.632812 360.023438 " fill-opacity="1" fill-rule="nonzero"/><g clip-path="url(#1d74a32456)"><path fill="#000000" d="M 494.210938 293.535156 C 457.695312 288.054688 421.203125 288.054688 384.683594 293.535156 C 378.050781 293.535156 372.652344 298.933594 372.652344 305.574219 L 372.652344 524.277344 C 372.652344 530.914062 378.050781 536.316406 384.683594 536.316406 C 421.203125 543.269531 457.695312 543.269531 494.210938 536.316406 C 500.875 536.316406 506.246094 530.914062 506.246094 524.277344 L 506.246094 305.574219 C 506.246094 298.933594 500.875 293.535156 494.210938 293.535156 Z M 416.777344 302.226562 L 462.117188 302.226562 C 463.933594 302.226562 465.410156 303.703125 465.410156 305.492188 C 465.410156 307.3125 463.933594 308.785156 462.117188 308.785156 L 416.777344 308.785156 C 414.960938 308.785156 413.515625 307.3125 413.515625 305.492188 C 413.515625 303.703125 414.960938 302.226562 416.777344 302.226562 Z M 498.054688 511.15625 C 498.054688 513.292969 496.34375 515.03125 494.210938 515.03125 L 384.683594 515.03125 C 382.550781 515.03125 380.839844 513.292969 380.839844 511.15625 L 380.839844 319.351562 C 380.839844 317.21875 382.550781 315.503906 384.683594 315.503906 L 494.210938 315.503906 C 496.34375 315.503906 498.054688 317.21875 498.054688 319.351562 L 498.054688 511.15625 " fill-opacity="1" fill-rule="nonzero"/></g><path fill="#000000" d="M 410.695312 465.136719 L 468.226562 465.136719 C 471.621094 465.136719 474.386719 462.371094 474.386719 458.945312 L 474.386719 415.371094 C 474.386719 411.949219 471.621094 409.183594 468.226562 409.183594 L 465.011719 409.183594 L 465.011719 391.425781 C 465.011719 377.304688 453.5625 365.847656 439.449219 365.847656 C 425.363281 365.847656 413.882812 377.304688 413.882812 391.425781 L 413.882812 409.183594 L 410.695312 409.183594 C 407.273438 409.183594 404.511719 411.949219 404.511719 415.371094 L 404.511719 458.945312 C 404.511719 462.371094 407.273438 465.136719 410.695312 465.136719 Z M 423.96875 391.425781 C 423.96875 382.863281 430.917969 375.9375 439.449219 375.9375 C 447.980469 375.9375 454.929688 382.863281 454.929688 391.425781 L 454.929688 409.183594 L 423.96875 409.183594 Z M 436.132812 432.8125 C 433.945312 431.652344 432.472656 429.335938 432.472656 426.699219 C 432.472656 422.878906 435.578125 419.773438 439.394531 419.773438 C 443.214844 419.773438 446.320312 422.878906 446.320312 426.699219 C 446.320312 429.335938 444.847656 431.652344 442.660156 432.8125 L 445.976562 455.679688 L 432.785156 455.679688 L 436.132812 432.8125 " fill-opacity="1" fill-rule="nonzero"/></svg>